<svg width="1200" height="1200" viewBox="0 0 1200 1200" fill="none" xmlns="http://www.w3.org/2000/svg">
<mask id="mask0_409_3640" style="mask-type:alpha" maskUnits="userSpaceOnUse" x="0" y="0" width="1197" height="1197">
<circle cx="598.033" cy="598.033" r="598.033" fill="#D9D9D9"/>
</mask>
<g mask="url(#mask0_409_3640)">
<path d="M925.883 1091.76C923.138 1093.73 920.001 1095.69 917.256 1097.65C914.118 1099.61 911.373 1101.57 908.236 1103.14C905.491 1104.71 903.138 1106.27 900.393 1107.84C900.001 1108.24 899.609 1108.24 899.216 1108.63C890.197 1114.12 880.785 1119.22 871.373 1123.92C868.628 1125.49 865.491 1127.06 862.746 1128.24C862.746 1128.24 862.354 1128.63 861.962 1128.63C858.824 1130.2 855.687 1131.76 852.55 1133.33C846.275 1136.47 839.609 1139.22 833.334 1141.96C830.197 1143.53 826.667 1144.71 823.53 1145.88C820.393 1147.06 816.864 1148.63 813.726 1149.8C810.589 1150.98 807.06 1152.55 803.922 1153.73C803.922 1153.73 803.922 1153.73 803.53 1153.73C800.393 1154.9 796.864 1156.08 793.726 1157.25C786.667 1159.61 779.216 1161.96 772.158 1164.31C769.805 1165.1 767.06 1165.88 764.707 1166.67C757.256 1169.02 749.805 1170.98 742.354 1172.55C739.609 1173.33 736.864 1173.73 733.726 1174.51C726.667 1176.08 719.216 1177.65 712.158 1179.22C710.589 1179.61 709.413 1179.61 707.844 1180C705.491 1180.39 702.746 1180.78 700.393 1181.18C696.864 1181.57 693.726 1182.35 690.197 1182.74C688.628 1183.14 687.06 1183.14 685.491 1183.53C683.53 1183.92 681.177 1184.31 678.824 1184.31C672.55 1185.1 665.883 1185.88 659.609 1186.67C657.648 1187.06 655.295 1187.06 653.334 1187.45H652.942C650.197 1187.84 647.452 1187.84 644.707 1188.24C641.962 1188.63 639.217 1188.63 636.471 1188.63C634.903 1188.63 632.942 1189.02 631.373 1189.02C628.236 1189.02 625.491 1189.41 622.746 1189.41C618.824 1189.41 615.295 1189.8 611.373 1189.8C607.452 1189.8 603.922 1189.8 600.001 1189.8C597.256 1189.8 594.511 1189.8 591.766 1189.8C426.275 1187.45 277.648 1117.25 171.373 1005.88C171.373 1005.88 171.373 1005.49 170.981 1005.49C159.216 994.902 169.413 938.431 216.864 902.745C276.471 857.647 419.217 829.412 419.217 829.412C419.217 829.412 474.511 820.392 679.609 863.137C799.609 888.235 890.981 924.706 941.962 1023.53C952.55 1043.92 963.138 1075.29 925.883 1091.76Z" fill="white"/>
<path d="M680.785 858.823C756.079 874.118 836.471 890.588 898.432 940.392C919.216 957.255 932.942 981.961 944.315 1005.88C949.805 1017.65 955.295 1029.8 959.609 1042.75C961.962 1051.37 965.491 1061.18 963.53 1071.37C963.138 1074.12 960.785 1077.65 958.824 1079.61C949.805 1088.63 940.001 1094.12 930.197 1101.18C872.55 1141.18 806.275 1169.41 737.648 1184.31C584.707 1217.65 419.216 1191.76 284.707 1111.37C240.001 1084.31 198.824 1051.37 163.53 1012.55C159.609 1007.84 159.609 1000 159.609 994.902C160.001 983.137 163.138 971.765 167.06 961.176C176.471 936.863 188.628 912.549 209.413 895.686C224.315 885.49 240.393 876.863 256.864 869.804C308.628 847.843 363.138 832.549 419.216 826.274C423.922 825.882 424.707 832.549 420.001 833.333C366.275 844.314 312.942 860.784 263.138 883.137C245.099 892.157 225.883 900 211.373 914.118C197.648 929.02 187.844 947.451 180.001 966.274C174.903 977.647 171.373 995.686 172.942 1004.71C197.648 1034.12 226.667 1060 258.04 1082.35C429.805 1202.35 690.589 1210.2 873.334 1110.2C889.805 1101.18 905.883 1090.98 921.177 1080.39C928.628 1075.29 936.471 1070.98 942.354 1065.1C942.746 1064.71 942.354 1065.1 942.354 1065.49C942.354 1065.88 941.962 1066.27 941.962 1066.27C942.354 1061.57 940.785 1055.29 938.824 1049.02C931.765 1026.27 920.393 1002.35 908.236 981.569C889.02 950.588 856.471 930.98 823.53 915.294C800.785 904.706 776.864 896.471 752.55 888.627C728.236 880.784 703.53 874.118 678.824 868.235C672.55 866.667 674.511 857.647 680.785 858.823Z" fill="black"/>
<path d="M898.434 943.921C868.63 916.862 773.336 874.51 701.963 857.255C670.591 849.804 596.865 828.235 540.787 822.745C510.591 819.608 454.905 827.059 420.003 828.235C386.277 829.412 272.552 852.549 218.042 890.98C206.277 899.215 153.728 951.372 130.983 1085.1C113.336 1188.24 91.3751 1321.96 90.5908 1367.45H984.316C999.218 1101.57 929.414 972.157 898.434 943.921Z" fill="black"/>
<path d="M891.766 951.372C873.726 936.078 850.589 924.314 829.021 914.118C795.295 898.039 760.001 884.314 723.923 873.725C687.844 863.922 650.197 854.51 614.119 845.882C589.805 840.392 565.099 835.686 540.393 832.941C516.472 830.98 490.589 833.725 466.276 835.294C447.844 836.863 428.628 837.647 409.805 839.216C354.903 846.667 299.217 861.176 249.021 884.706C239.609 889.412 230.589 894.118 222.354 900.392C201.57 919.216 186.668 945.49 174.903 970.98C155.687 1013.33 145.099 1059.61 138.04 1105.49C132.158 1141.57 125.099 1181.96 119.609 1218.04C112.158 1267.45 103.53 1317.65 101.177 1367.45L90.9814 1357.25H984.315L974.119 1366.67C979.609 1258.43 974.903 1147.06 940.785 1043.14C929.413 1010.98 915.687 976.471 891.766 951.372ZM905.491 936.471C920.393 950.588 930.197 966.667 940.785 983.529C970.589 1032.55 984.707 1088.24 992.55 1144.71C1003.53 1218.43 1003.14 1293.73 994.903 1367.84C994.903 1373.33 990.197 1377.65 984.707 1377.25H91.3736C85.8834 1377.25 81.1775 1372.55 81.1775 1367.06C81.5696 1353.73 83.1383 1341.18 84.3147 1328.24C88.6285 1290.2 94.5108 1252.55 100.785 1214.9C106.276 1178.82 113.727 1138.43 119.609 1102.35C127.452 1054.9 138.432 1007.06 158.04 963.137C171.374 934.902 186.668 907.059 210.589 885.882C220.001 878.823 230.197 872.941 240.785 867.843C293.727 843.137 350.197 828.627 407.452 820.392C426.276 818.823 445.491 818.039 464.707 816.078C490.589 814.118 515.687 811.372 542.354 813.333C568.236 816.078 593.334 820.784 618.432 826.274C656.079 834.902 692.55 843.922 729.805 854.118C766.668 865.098 802.746 878.823 837.648 895.294C861.57 907.843 884.315 918.823 905.491 936.471Z" fill="black"/>
<path d="M914.903 1367.45C888.628 1118.04 836.864 990.98 836.864 990.98C824.707 923.922 792.55 870.98 782.354 866.275C763.923 858.039 760.785 860.784 760.785 860.784C790.589 901.177 805.883 969.804 809.805 1005.49C697.256 1054.51 489.413 1020.39 416.864 1004.71C392.942 961.961 347.06 872.549 307.06 838.431C303.53 835.686 298.824 835.294 294.903 836.863C291.766 838.431 287.452 841.177 283.53 845.882C281.57 848.235 281.57 851.373 283.923 853.726C284.315 854.118 284.707 854.51 285.099 854.902C351.766 927.843 388.236 1055.29 379.217 1153.73C363.138 1328.63 332.55 1367.06 332.55 1367.06H914.903V1367.45Z" fill="white"/>
<path d="M907.452 1360.78C903.923 1347.45 901.57 1334.51 900.785 1320.78C889.021 1209.8 872.55 1097.25 833.334 992.549L838.825 994.51C836.864 995.686 834.511 994.902 833.334 993.333C827.844 967.059 820.001 941.176 808.236 916.863C800.393 901.176 792.55 885.098 780.393 872.941C775.687 870.588 769.413 868.627 764.315 867.059C763.53 866.667 762.746 866.667 762.354 866.667C762.354 866.667 762.354 866.667 762.746 866.667H763.138C763.531 866.667 763.138 866.667 763.923 865.882L764.707 858.431C768.236 864.314 776.08 878.824 778.825 884.706C791.374 910.98 799.217 939.608 805.491 967.843C807.844 980.392 810.197 993.333 811.766 1006.27C811.766 1007.45 811.374 1008.24 810.197 1009.02C748.236 1034.9 679.609 1037.25 613.334 1036.47C580.001 1035.69 546.668 1032.94 513.727 1029.41C480.785 1025.49 447.844 1020.39 414.903 1013.73C412.55 1013.33 410.981 1011.76 409.805 1010.2C393.727 981.569 378.825 953.333 362.354 925.49C346.276 898.431 329.413 870.196 306.668 848.235L302.746 844.706C297.256 840.784 290.981 847.843 287.06 851.373C286.668 851.765 286.668 852.157 287.06 852.549L287.452 852.941C300.001 867.059 310.981 882.353 320.785 898.431C338.04 926.667 351.374 956.471 365.491 986.275C385.883 1032.16 386.668 1083.14 386.276 1132.55C383.923 1181.57 378.04 1230.59 370.197 1278.82C363.531 1311.76 357.648 1346.27 340.001 1375.69L332.158 1359.22C515.295 1356.47 723.923 1358.04 907.452 1360.78ZM922.746 1374.51C734.511 1377.25 520.393 1378.82 332.158 1377.65L324.315 1361.18C336.08 1341.57 341.57 1318.82 347.844 1296.86C358.04 1258.04 364.707 1218.43 369.413 1178.43L372.158 1154.51C379.217 1098.43 361.178 1043.92 349.021 989.804C339.609 942.745 315.687 898.824 284.315 862.745L280.393 858.431L280.001 858.039L279.609 857.647C277.648 855.294 276.472 852.549 276.472 849.412C276.864 843.922 281.962 839.608 285.883 836.471C293.727 829.804 303.923 828.627 311.766 836.471C325.491 848.235 336.472 861.961 347.06 876.078C376.08 915.294 399.609 958.824 423.138 1001.57L418.04 997.647C482.354 1011.37 547.844 1021.18 613.727 1025.49C678.825 1028.63 747.06 1028.63 808.236 1003.53L806.668 1006.27C805.099 993.726 803.138 981.176 800.393 968.627C794.903 943.922 786.668 919.608 775.687 896.471C773.727 892.157 769.021 883.922 766.668 879.608C763.531 874.118 759.609 869.02 755.687 864.314C753.334 861.569 754.903 857.647 757.256 856.078C765.099 852.157 774.119 856.863 781.57 859.608C783.138 860.392 785.883 861.569 787.452 862.745C801.57 876.078 809.413 894.902 817.256 912.157C822.746 924.706 827.06 937.647 830.589 950.588C834.511 963.529 837.256 976.863 839.609 990.196L833.727 987.451C835.687 986.275 838.04 986.667 839.217 988.627C866.276 1064.71 885.099 1143.92 900.393 1223.14C906.668 1254.9 911.766 1286.67 916.864 1318.43C921.178 1336.86 922.354 1356.47 922.746 1374.51Z" fill="black"/>
<path d="M443.923 1092.16C454.319 1092.16 462.746 1083.73 462.746 1073.33C462.746 1062.94 454.319 1054.51 443.923 1054.51C433.527 1054.51 425.099 1062.94 425.099 1073.33C425.099 1083.73 433.527 1092.16 443.923 1092.16Z" fill="black"/>
<path d="M806.668 1069.8C815.764 1069.8 823.138 1062.43 823.138 1053.33C823.138 1044.24 815.764 1036.86 806.668 1036.86C797.571 1036.86 790.197 1044.24 790.197 1053.33C790.197 1062.43 797.571 1069.8 806.668 1069.8Z" fill="black"/>
<path d="M717.648 963.138C709.413 1003.53 656.079 1027.84 566.275 991.373C472.942 953.726 432.55 863.922 422.354 837.255C477.648 733.726 439.217 661.961 439.217 661.961C566.667 650.981 678.04 800 678.04 800L695.295 873.726C696.864 880 700.001 885.491 704.707 889.412C712.942 903.922 722.746 937.255 717.648 963.138Z" fill="white"/>
<path d="M420.395 838.432C427.846 827.059 432.552 813.726 435.689 800.785C441.571 773.726 443.532 746.275 443.924 718.824V708.628C442.748 698.432 439.218 687.844 435.297 678.432C430.199 665.883 448.63 658.04 454.512 670.589C455.297 672.157 455.297 674.902 455.297 676.471C456.473 729.804 458.826 798.432 425.101 842.746C422.748 845.099 418.042 841.569 420.395 838.432Z" fill="black"/>
<path d="M682.354 799.216C688.237 802.746 690.197 807.452 690.982 812.158C693.335 821.569 692.55 831.766 694.903 841.569C696.864 850.981 702.746 860.001 704.315 869.805C706.276 880.001 712.158 901.569 714.511 912.158C715.295 914.511 713.727 917.256 710.982 917.648C709.413 918.04 708.237 917.648 707.06 916.864C701.962 912.55 699.609 908.236 696.472 902.746C691.374 893.334 687.845 884.707 684.707 874.118C681.962 864.707 683.139 854.511 680.786 844.707C678.825 835.295 673.335 826.275 671.374 816.471C670.197 811.765 669.805 806.667 673.335 800.785C675.688 798.432 679.609 797.648 682.354 799.216Z" fill="black"/>
<path d="M710.591 902.745C635.689 898.824 574.512 875.294 514.905 769.02C565.101 813.334 624.316 830.196 686.669 838.04L694.905 874.118C696.473 880.392 705.885 898.824 710.591 902.745Z" fill="black"/>
<path d="M707.455 888.236C720.788 913.334 728.632 944.706 720.396 972.549C714.122 992.157 696.083 1006.67 676.475 1012.16C630.985 1024.31 578.436 1005.1 538.043 983.53C488.239 955.687 451.377 909.02 427.847 858.04C426.279 854.118 431.769 850.981 434.122 854.902C442.357 871.373 451.769 887.451 462.357 901.961C472.945 916.863 485.102 930.589 498.828 942.745C538.828 978.824 592.945 1001.18 647.063 1001.18C702.749 999.608 723.926 970.196 710.985 916.079C709.024 907.451 705.886 898.432 701.573 890.981C699.22 887.843 705.102 884.314 707.455 888.236Z" fill="black"/>
<path d="M859.215 417.255C866.274 450.197 852.548 465.099 852.548 553.334C852.548 597.648 848.235 648.236 839.607 696.863C830.587 747.059 805.489 794.51 763.529 829.805C699.999 882.746 633.333 885.099 554.509 823.53C543.529 814.903 505.097 785.883 495.293 776.079C473.333 754.51 471.372 698.824 457.254 677.255C447.45 662.353 441.568 686.275 419.215 661.569C388.235 627.844 350.98 560.001 369.411 440.001C399.215 245.491 553.333 222.746 667.45 244.314C781.568 265.491 840.391 330.589 859.215 417.255Z" fill="white"/>
<path d="M438.04 695.687C424.315 673.334 405.099 654.51 392.55 631.373C354.511 561.177 346.667 475.687 367.06 398.824C410.589 234.118 570.589 205.883 715.687 250.589C794.118 274.902 851.766 334.118 867.844 415.687C873.726 445.098 861.177 473.334 859.217 501.961C857.256 519.216 856.471 536.471 856.864 553.726C858.824 606.275 857.256 659.608 841.569 710.197C825.491 760.785 799.217 810.981 755.687 843.53C673.726 904.706 576.864 860.001 513.334 795.295C511.373 793.334 514.118 790.197 516.471 791.765C558.04 821.569 602.354 849.804 653.334 855.295C742.354 865.491 804.315 782.353 830.589 707.059C841.962 674.51 847.844 640.393 849.02 606.275C850.197 571.373 847.452 536.471 848.628 501.569C849.02 492.942 849.413 483.922 850.197 475.295C851.373 461.569 854.903 438.824 852.158 425.491C843.922 384.706 825.883 345.491 796.864 315.295C729.02 245.098 601.177 225.098 510.981 257.647C405.099 296.471 377.256 402.746 371.373 504.706C367.452 565.883 385.491 625.491 431.765 667.451L450.197 686.667C457.648 694.51 444.315 705.098 438.04 695.687Z" fill="black"/>
<path d="M484.315 570.981C484.315 570.981 472.158 512.157 414.903 519.216C365.491 525.49 348.236 643.922 460.393 676.863" fill="white"/>
<path d="M455.297 625.491C446.277 620.393 440.002 611.766 439.61 601.177C440.002 593.334 441.179 584.315 439.218 576.471C438.042 569.021 430.198 567.06 424.316 567.452C418.042 568.628 414.12 576.472 412.944 582.746C412.944 583.138 412.551 584.315 412.551 584.707C412.159 586.668 409.022 586.668 408.238 584.707C403.14 569.413 414.512 552.55 430.983 554.511C454.12 556.079 457.257 580.393 452.944 598.824C450.591 606.668 453.728 613.726 458.042 620.393L458.826 621.57C460.787 623.922 457.649 627.06 455.297 625.491Z" fill="black"/>
<path d="M769.022 529.412C774.904 557.255 785.885 583.137 799.61 607.451C811.767 637.255 780.394 665.49 752.551 664.314C749.414 664.314 749.022 660 751.767 659.216C769.414 653.726 785.492 641.961 788.237 623.922C789.414 618.432 787.845 613.726 785.1 609.02C772.159 584.706 764.316 556.863 766.277 529.412C766.277 527.451 769.022 527.451 769.022 529.412Z" fill="black"/>
<path d="M482.354 571.373C473.334 548.236 453.726 526.275 427.452 526.667C425.099 526.275 421.177 527.059 418.824 527.059C412.158 527.451 406.667 529.804 401.569 534.51C376.471 559.608 380.785 603.922 401.177 631.765C408.236 641.569 417.256 650.197 427.452 657.255C437.648 664.314 449.02 669.804 461.177 674.51C463.922 675.295 462.746 679.608 460.001 679.216C433.726 673.726 408.628 660.785 391.373 639.216C364.707 607.059 359.216 553.334 390.981 521.961C398.04 515.687 407.844 510.981 417.648 510.981C420.785 510.981 425.491 510.197 428.628 510.981C445.099 511.765 460.785 520 470.981 532.942C480.001 543.922 485.099 557.255 486.667 570.589C486.667 572.942 483.138 573.726 482.354 571.373Z" fill="black"/>
<path d="M739.216 703.529C714.118 727.451 666.667 708.235 654.118 679.216C652.549 675.686 656.471 672.549 659.608 674.117C666.275 677.647 672.157 681.176 678.432 683.921C696.471 692.157 715.294 698.823 735.294 696.863C739.216 696.078 741.961 700.784 739.216 703.529Z" fill="black"/>
<path d="M622.746 569.412C613.334 569.02 606.275 561.177 607.06 551.765L607.452 540.785C607.844 531.373 615.687 524.314 625.099 525.099C634.511 525.491 641.57 533.334 640.785 542.746L640.393 553.726C640.001 562.746 632.158 569.804 622.746 569.412Z" fill="black"/>
<path d="M787.843 575.295C779.215 574.903 772.549 567.452 772.941 558.824L773.333 548.628C773.725 540.001 781.176 533.334 789.803 533.726C798.431 534.119 805.098 541.57 804.705 550.197L804.313 560.393C803.921 569.02 796.47 575.687 787.843 575.295Z" fill="black"/>
<path d="M658.04 548.236C645.099 539.608 630.981 533.726 615.295 536.863C610.197 537.647 605.099 539.216 601.962 542.746C600.785 544.314 598.04 543.922 598.04 541.569C598.432 533.726 605.099 528.628 611.373 525.491C623.53 519.216 640.393 520.393 651.373 528.628C655.295 530.981 668.628 545.491 661.569 548.628C660.001 549.412 659.217 549.02 658.04 548.236Z" fill="black"/>
<path d="M770.197 550.197C770.197 533.726 790.589 527.844 803.138 533.726C810.197 536.863 815.295 543.138 817.256 550.589C818.04 552.942 814.511 554.903 812.942 552.942C806.275 545.099 794.903 541.177 785.883 545.883C783.138 547.452 782.746 548.628 781.962 550.197C781.962 558.04 770.589 557.648 770.197 550.197Z" fill="black"/>
<path d="M676.864 483.53C685.099 486.275 693.334 478.824 691.766 469.804C690.981 465.098 689.02 460.392 685.099 456.863C673.334 446.275 624.707 436.863 595.295 450.589C569.413 463.138 639.217 470.981 676.864 483.53Z" fill="black"/>
<path d="M794.12 489.804C787.453 492.157 780.394 485.098 781.571 476.863C781.963 472.549 783.532 468.236 786.669 465.098C796.081 455.687 828.237 448.236 848.63 462.745C866.277 474.902 824.708 478.432 794.12 489.804Z" fill="black"/>
<path d="M859.216 417.255C857.255 408.627 854.902 400.392 852.157 392.157C831.373 375.686 809.412 365.098 776.079 360.392C686.275 348.235 615.294 356.47 539.608 372.941C492.157 383.137 501.961 547.059 483.53 568.627C480.392 557.647 465.098 512.941 414.902 519.215C367.451 525.098 349.412 634.902 447.451 672.549C446.667 694.117 455.294 718.039 449.804 743.137C449.804 743.137 447.059 714.51 415.687 676.863C384.314 639.215 282.353 541.568 324.706 398.823C367.059 256.078 558.824 181.568 737.255 254.117C767.843 266.666 792.941 284.313 812.941 302.745C860 345.882 884.314 360 877.255 423.137C874.902 444.313 865.49 445.098 859.216 417.255Z" fill="black"/>
<path d="M796.864 349.804C796.864 349.804 681.178 527.059 465.492 472.157C465.492 472.157 423.531 366.667 514.904 326.274C606.276 285.882 774.511 314.51 796.864 349.804Z" fill="black"/>
<path d="M784.709 352.157C784.709 352.157 799.611 393.334 829.022 426.667C848.238 448.236 873.336 466.275 904.709 467.059C904.709 467.059 914.513 360.393 844.709 318.824C774.905 277.255 784.709 352.157 784.709 352.157Z" fill="black"/>
<path d="M498.041 284.314C498.041 284.314 371.766 87.843 260.786 230.196C149.806 372.549 270.982 744.314 203.531 856.078C203.531 856.078 280.786 800 301.178 690.196C301.178 690.196 303.531 735.686 289.806 799.216C289.806 799.216 371.766 704.706 371.766 591.372C371.766 478.039 453.727 313.333 498.041 284.314Z" fill="black"/>
<path d="M865.101 505.49C879.219 565.49 865.101 669.411 865.101 669.411C865.101 669.411 1037.65 395.294 898.042 291.372C780.395 203.529 526.67 292.941 526.67 292.941C526.67 292.941 764.709 235.686 811.376 345.098C853.729 443.921 831.768 360.392 845.101 419.215C846.278 425.098 863.141 497.255 865.101 505.49Z" fill="black"/>
<path d="M554.902 647.059C565.882 641.176 576.47 634.902 588.627 631.765C589.804 631.765 590.588 631.372 592.941 632.157C601.176 638.431 577.255 654.117 572.941 658.039C574.117 656.47 573.725 653.725 571.765 652.941C571.372 652.941 571.372 652.549 570.98 652.549C570.196 652.549 570.196 652.549 570.196 652.549C580 649.019 589.804 645.098 599.216 640.392C604.706 638.039 612.157 632.941 618.039 632.549C620.392 632.549 623.137 634.902 622.745 637.255C622.353 640.392 621.568 641.568 620.784 643.529C620 645.098 618.431 647.451 618.039 649.019C618.039 649.412 617.647 648.627 617.647 648.627C617.647 649.019 620 649.019 620.392 648.627C626.666 647.843 633.333 645.49 639.608 643.137C640.784 642.745 641.568 644.314 640.392 645.098C633.725 649.412 626.666 654.117 618.039 654.902C612.549 655.294 609.804 650.196 611.765 645.49C612.549 642.745 614.51 639.608 615.294 637.255C615.294 638.039 616.078 639.216 616.863 639.608C617.647 640 618.039 639.608 617.647 640C613.725 641.176 605.882 645.49 602.353 647.059C592.157 651.765 582.353 656.078 571.372 659.216C570.588 659.216 570.588 659.608 569.412 659.216C566.274 658.823 565.49 654.902 567.843 652.941C572.549 649.019 578.039 645.882 582.353 641.961C584.706 640 587.451 637.255 589.019 634.902C589.019 635.294 589.412 636.078 589.804 636.47C586.274 636.863 579.216 638.823 574.902 640.784C568.627 643.137 561.961 645.882 555.686 648.627C554.902 649.412 553.725 647.451 554.902 647.059Z" fill="black"/>
<path d="M809.019 647.059C812.549 643.137 827.451 624.313 831.372 634.117C831.372 634.902 831.372 635.686 831.372 636.078C829.804 643.921 824.706 650.588 820.784 657.255C821.568 655.294 820 652.549 818.039 652.157C817.255 652.157 816.863 652.157 816.47 652.157C816.078 652.157 816.47 652.157 816.863 651.764C824.706 646.666 830.588 640.392 838.431 634.902C840 634.117 841.961 632.941 843.921 634.117C845.882 635.686 845.49 638.039 844.706 639.608C843.921 641.568 843.137 643.137 842.353 645.098C841.961 645.49 841.568 645.882 840.784 645.49C840.392 645.49 840.392 645.098 840.392 644.706C840.392 643.921 840.392 638.823 840.392 638.039C840.392 637.647 840 637.255 840.392 638.039C840.392 638.431 841.176 639.215 841.961 639.215C842.353 639.215 843.137 639.215 843.137 639.215C836.47 647.059 828.627 654.51 819.608 659.608C816.863 660.784 813.725 658.431 814.117 655.294C814.117 654.902 814.51 654.117 814.902 653.725C817.647 649.804 820.784 645.882 823.137 641.961C824.314 640 825.882 637.255 826.274 635.294C826.274 636.078 827.843 637.255 828.235 636.862C821.961 639.215 816.47 644.314 810.98 648.235C809.412 649.412 808.235 647.843 809.019 647.059Z" fill="black"/>
<path d="M1130.2 330.588C1368.24 789.02 949.804 1306.27 450.98 1180C227.059 1124.31 47.0589 930.196 9.80403 702.353C-32.5489 475.686 69.804 232.157 261.177 103.922C523.53 -76.4704 887.059 -16.4704 1074.9 241.569C1076.08 242.745 1075.69 244.706 1074.12 245.883C1072.94 247.059 1070.98 246.667 1069.8 245.098C1043.92 211.765 1014.51 181.569 982.353 154.51C929.412 109.412 867.451 74.1179 801.961 50.1963C468.628 -70.588 102.745 130.196 29.804 478.824C-52.5489 869.412 279.608 1229.02 675.686 1175.29C981.177 1136.86 1208.24 854.902 1183.14 548.235C1177.65 474.118 1158.04 400.785 1125.49 333.334C1124.71 332.157 1125.49 330.588 1126.67 329.804C1127.84 329.02 1129.41 329.412 1130.2 330.588Z" fill="black"/>
</g>
</svg>
